<?xml version="1.0" encoding="iso-8859-1"?>
<!-- Generator: Adobe Illustrator 19.0.0, SVG Export Plug-In . SVG Version: 6.00 Build 0)  -->
<svg version="1.1" id="Layer_1" xmlns="http://www.w3.org/2000/svg" xmlns:xlink="http://www.w3.org/1999/xlink" x="0px" y="0px"
	 viewBox="0 0 511.997 511.997" style="enable-background:new 0 0 511.997 511.997;" xml:space="preserve">
<path style="fill:#ED5564;" d="M400.228,273.809l-193.66,193.653c-10.187,10.188-10.187,26.703,0,36.891
	c5.078,5.078,11.765,7.641,18.437,7.641s13.344-2.547,18.438-7.656L437.12,310.686L400.228,273.809z"/>
<path style="fill:#965353;" d="M502.258,208.201c-27.094,0-108.982,4.406-108.982,59.937c0,27.094,21.953,49.047,49.031,49.047
	c27.094,0,49.045-21.953,49.045-49.047C491.352,241.06,529.336,208.201,502.258,208.201z"/>
<path style="fill:#FFD2A6;" d="M350.621,46.267c-14.438-14.64-32.156-25.984-52.703-33.734
	c-22.047-8.312-47.507-12.531-75.71-12.531c-6.312,0-12.859,0.203-19.453,0.625c-32.124,2.047-61.89,9.188-88.452,21.234
	C89.102,33.298,67.242,48.892,49.336,68.219c-34.75,37.5-52.14,86.202-48.968,137.169c3.563,57.671,19.797,102.625,48.234,133.609
	c13.843,15.092,30.468,26.623,49.452,34.279c18.531,7.469,39.343,11.266,61.843,11.266c60.874,0,78.686-39.25,91.717-67.904
	c6.625-14.594,12.343-27.203,21.539-31.906c6.859-3.516,17.188-4.906,28.094-6.359c19.688-2.641,42.016-5.641,60.404-21.64
	c20.797-18.109,31.234-48.859,31.875-94.045C394.197,116.359,378.947,75.016,350.621,46.267z M298.668,223.997
	c-17.672,0-32.008-14.328-32.008-31.999s14.336-32,32.008-32s32,14.328,32,32S316.34,223.997,298.668,223.997z"/>
<path style="fill:#F4BE8E;" d="M298.668,234.654c-23.531,0-42.679-19.141-42.679-42.655c0-23.531,19.148-42.671,42.679-42.671
	s42.672,19.141,42.672,42.671C341.34,215.513,322.199,234.654,298.668,234.654z M298.668,170.655
	c-11.766,0-21.328,9.578-21.328,21.343c0,11.75,9.562,21.327,21.328,21.327s21.328-9.578,21.328-21.327
	C319.996,180.233,310.434,170.655,298.668,170.655z"/>
<path style="fill:#A0D468;" d="M234.661,74.657c0,11.781-9.547,21.343-21.328,21.343s-21.343-9.562-21.343-21.343
	s9.562-21.328,21.343-21.328C225.114,53.329,234.661,62.875,234.661,74.657z"/>
<path style="fill:#8CC153;" d="M213.333,42.657c-17.655,0-31.999,14.359-31.999,32c0,17.656,14.344,32,31.999,32
	c17.641,0,32-14.344,32-32C245.333,57.017,230.974,42.657,213.333,42.657z M213.333,85.329c-5.89,0-10.671-4.781-10.671-10.672
	c0-5.875,4.781-10.656,10.671-10.656c5.875,0,10.656,4.781,10.656,10.656C223.989,80.547,219.208,85.329,213.333,85.329z"/>
<path style="fill:#AC92EB;" d="M149.334,106.656c0,11.781-9.562,21.343-21.343,21.343s-21.328-9.562-21.328-21.343
	s9.547-21.328,21.328-21.328C139.772,85.329,149.334,94.875,149.334,106.656z"/>
<path style="fill:#967ADC;" d="M127.991,74.657c-17.641,0-32,14.359-32,32c0,17.656,14.359,31.999,32,31.999
	c17.656,0,32-14.343,32-31.999C159.991,89.016,145.647,74.657,127.991,74.657z M127.991,117.328
	c-5.875,0-10.656-4.781-10.656-10.671c0-5.875,4.781-10.656,10.656-10.656c5.89,0,10.671,4.781,10.671,10.656
	C138.663,112.547,133.881,117.328,127.991,117.328z"/>
<path style="fill:#5D9CEC;" d="M106.663,181.327c0,11.781-9.547,21.327-21.327,21.327c-11.781,0-21.344-9.546-21.344-21.327
	c0-11.781,9.562-21.328,21.344-21.328C97.116,159.999,106.663,169.546,106.663,181.327z"/>
<path style="fill:#4A89DC;" d="M85.336,149.327c-17.656,0-32,14.359-32,32c0,17.64,14.343,31.999,32,31.999
	c17.64,0,31.999-14.358,31.999-31.999C117.335,163.686,102.976,149.327,85.336,149.327z M85.336,191.998
	c-5.891,0-10.672-4.796-10.672-10.671s4.781-10.672,10.672-10.672c5.875,0,10.655,4.797,10.655,10.672S91.21,191.998,85.336,191.998
	z"/>
<path style="fill:#ED5564;" d="M117.335,266.653c0,11.781-9.562,21.344-21.344,21.344c-11.78,0-21.327-9.562-21.327-21.344
	c0-11.781,9.547-21.328,21.327-21.328C107.772,245.326,117.335,254.872,117.335,266.653z"/>
<path style="fill:#DA4453;" d="M95.991,234.654c-17.64,0-31.999,14.359-31.999,32s14.359,32,31.999,32c17.656,0,32-14.359,32-32
	S113.647,234.654,95.991,234.654z M95.991,277.325c-5.875,0-10.655-4.781-10.655-10.672c0-5.875,4.781-10.656,10.655-10.656
	c5.891,0,10.672,4.781,10.672,10.656C106.663,272.544,101.882,277.325,95.991,277.325z"/>
<g>
</g>
<g>
</g>
<g>
</g>
<g>
</g>
<g>
</g>
<g>
</g>
<g>
</g>
<g>
</g>
<g>
</g>
<g>
</g>
<g>
</g>
<g>
</g>
<g>
</g>
<g>
</g>
<g>
</g>
</svg>
